<svg width="400" height="400" viewBox="0 0 400 400" fill="none" xmlns="http://www.w3.org/2000/svg">
  <!-- Background circle -->
  <circle cx="200" cy="200" r="200" fill="url(#bg-grad)"/>

  <!-- Neck -->
  <path d="M170 310 L170 345 Q170 365 200 365 Q230 365 230 345 L230 310" fill="#E8B896"/>

  <!-- T-shirt / dark top -->
  <path d="M125 400 Q128 345 170 330 L170 345 Q170 365 200 365 Q230 365 230 345 L230 330 Q272 345 275 400 Z" fill="#1c1917"/>
  <!-- T-shirt collar -->
  <path d="M170 330 Q185 340 200 342 Q215 340 230 330" stroke="#2a2520" stroke-width="1" fill="none"/>

  <!-- Face shape - slightly more angular jaw -->
  <path d="M135 210 Q132 170 155 155 Q170 145 200 143 Q230 145 245 155 Q268 170 265 210 Q265 260 245 285 Q230 302 200 308 Q170 302 155 285 Q135 260 135 210Z" fill="#EDBE9E"/>

  <!-- Ears -->
  <ellipse cx="132" cy="220" rx="11" ry="17" fill="#DBA882"/>
  <ellipse cx="268" cy="220" rx="11" ry="17" fill="#DBA882"/>
  <ellipse cx="132" cy="220" rx="6" ry="10" fill="#D4A278" opacity="0.3"/>
  <ellipse cx="268" cy="220" rx="6" ry="10" fill="#D4A278" opacity="0.3"/>

  <!-- Jaw shadow / stubble area -->
  <path d="M160 270 Q180 300 200 305 Q220 300 240 270 Q248 258 248 248 L152 248 Q152 258 160 270Z" fill="#C9A07A" opacity="0.12"/>

  <!-- Eyes - wider, more expressive, friendly -->
  <!-- Left eye -->
  <ellipse cx="175" cy="215" rx="16" ry="11" fill="white"/>
  <circle cx="177" cy="216" r="8" fill="#5B9E5A"/>
  <circle cx="177" cy="216" r="4.5" fill="#2D5A2D"/>
  <circle cx="179" cy="213" r="2.2" fill="white" opacity="0.9"/>
  <circle cx="174" cy="219" r="1" fill="white" opacity="0.4"/>
  <!-- Left lower lid -->
  <path d="M162 221 Q175 226 188 221" stroke="#CFA07A" stroke-width="0.8" fill="none" opacity="0.5"/>

  <!-- Right eye -->
  <ellipse cx="225" cy="215" rx="16" ry="11" fill="white"/>
  <circle cx="223" cy="216" r="8" fill="#5B9E5A"/>
  <circle cx="223" cy="216" r="4.5" fill="#2D5A2D"/>
  <circle cx="225" cy="213" r="2.2" fill="white" opacity="0.9"/>
  <circle cx="220" cy="219" r="1" fill="white" opacity="0.4"/>
  <!-- Right lower lid -->
  <path d="M212 221 Q225 226 238 221" stroke="#CFA07A" stroke-width="0.8" fill="none" opacity="0.5"/>

  <!-- Eyebrows - natural, slightly thick -->
  <path d="M155 200 Q165 193 188 197" stroke="#3D2B1F" stroke-width="2.8" stroke-linecap="round" fill="none"/>
  <path d="M212 197 Q235 193 245 200" stroke="#3D2B1F" stroke-width="2.8" stroke-linecap="round" fill="none"/>

  <!-- Nose -->
  <path d="M200 218 Q197 238 194 248" stroke="#CFA07A" stroke-width="1.5" fill="none"/>
  <path d="M189 252 Q194 257 200 256 Q206 257 211 252" stroke="#CFA07A" stroke-width="1.5" fill="none"/>

  <!-- Mouth - bigger friendly smile showing teeth slightly -->
  <path d="M178 275 Q188 288 200 289 Q212 288 222 275" stroke="#C47A5A" stroke-width="2.5" stroke-linecap="round" fill="none"/>
  <!-- Upper lip shape -->
  <path d="M182 275 Q191 270 200 272 Q209 270 218 275" stroke="#C47A5A" stroke-width="1" fill="none" opacity="0.4"/>
  <!-- Smile fill -->
  <path d="M180 275 Q190 286 200 287 Q210 286 220 275 Z" fill="#C4564A" opacity="0.15"/>
  <!-- Teeth hint -->
  <path d="M186 277 L214 277" stroke="white" stroke-width="3" stroke-linecap="round" opacity="0.6"/>

  <!-- CURLY HAIR - big volume -->
  <!-- Hair mass base -->
  <path d="M120 190 Q115 140 140 110 Q160 88 200 82 Q240 88 260 110 Q285 140 280 190 L275 175 Q272 140 255 118 Q235 95 200 90 Q165 95 145 118 Q128 140 125 175 Z" fill="#2A1810"/>

  <!-- Big curls - top layer -->
  <circle cx="148" cy="110" r="20" fill="#2A1810"/>
  <circle cx="170" cy="95" r="22" fill="#2A1810"/>
  <circle cx="195" cy="85" r="22" fill="#2A1810"/>
  <circle cx="220" cy="88" r="21" fill="#2A1810"/>
  <circle cx="242" cy="98" r="20" fill="#2A1810"/>
  <circle cx="258" cy="115" r="18" fill="#2A1810"/>
  <circle cx="138" cy="130" r="17" fill="#2A1810"/>

  <!-- Second layer curls for volume -->
  <circle cx="155" cy="100" r="16" fill="#2A1810"/>
  <circle cx="182" cy="82" r="18" fill="#2A1810"/>
  <circle cx="208" cy="80" r="17" fill="#2A1810"/>
  <circle cx="232" cy="85" r="17" fill="#2A1810"/>
  <circle cx="252" cy="105" r="15" fill="#2A1810"/>

  <!-- Top-top curls sticking up a bit -->
  <circle cx="165" cy="78" r="12" fill="#2A1810"/>
  <circle cx="190" cy="72" r="13" fill="#2A1810"/>
  <circle cx="210" cy="73" r="12" fill="#2A1810"/>
  <circle cx="235" cy="80" r="11" fill="#2A1810"/>

  <!-- Side curls -->
  <circle cx="125" cy="155" r="14" fill="#2A1810"/>
  <circle cx="122" cy="175" r="12" fill="#2A1810"/>
  <circle cx="124" cy="195" r="10" fill="#2A1810"/>
  <circle cx="275" cy="155" r="14" fill="#2A1810"/>
  <circle cx="278" cy="175" r="12" fill="#2A1810"/>
  <circle cx="276" cy="195" r="10" fill="#2A1810"/>

  <!-- Hair highlight curls for depth -->
  <circle cx="160" cy="95" r="10" fill="#3D2B1F"/>
  <circle cx="185" cy="80" r="10" fill="#3D2B1F"/>
  <circle cx="210" cy="78" r="9" fill="#3D2B1F"/>
  <circle cx="235" cy="88" r="9" fill="#3D2B1F"/>
  <circle cx="250" cy="108" r="8" fill="#3D2B1F"/>
  <circle cx="145" cy="118" r="8" fill="#3D2B1F"/>

  <!-- Smaller accent curls -->
  <circle cx="175" cy="75" r="7" fill="#3D2B1F"/>
  <circle cx="200" cy="72" r="7" fill="#3D2B1F"/>
  <circle cx="222" cy="76" r="6" fill="#3D2B1F"/>
  <circle cx="128" cy="145" r="7" fill="#3D2B1F"/>
  <circle cx="272" cy="145" r="7" fill="#3D2B1F"/>

  <!-- Curl detail lines -->
  <path d="M155 95 Q162 82 172 88" stroke="#4A3528" stroke-width="1.2" fill="none" opacity="0.4"/>
  <path d="M188 78 Q195 68 205 75" stroke="#4A3528" stroke-width="1.2" fill="none" opacity="0.4"/>
  <path d="M220 82 Q228 72 238 80" stroke="#4A3528" stroke-width="1.2" fill="none" opacity="0.4"/>
  <path d="M170 90 Q177 80 185 85" stroke="#4A3528" stroke-width="1" fill="none" opacity="0.3"/>
  <path d="M205 76 Q212 68 220 73" stroke="#4A3528" stroke-width="1" fill="none" opacity="0.3"/>

  <!-- Forehead hair edge softener -->
  <path d="M142 165 Q150 152 162 155" stroke="#2A1810" stroke-width="6" stroke-linecap="round" fill="none"/>
  <path d="M258 165 Q250 152 238 155" stroke="#2A1810" stroke-width="6" stroke-linecap="round" fill="none"/>

  <defs>
    <linearGradient id="bg-grad" x1="0" y1="0" x2="400" y2="400">
      <stop offset="0%" stop-color="#fef3c7"/>
      <stop offset="100%" stop-color="#fde68a"/>
    </linearGradient>
  </defs>
</svg>
